<mxfile host="app.diagrams.net" modified="2021-10-14T16:00:36.912Z" agent="5.0 (Windows NT 10.0; Win64; x64) AppleWebKit/537.36 (KHTML, like Gecko) Chrome/94.0.4606.81 Safari/537.36" etag="Nxcg3KIWjA0vbUL4jhIQ" version="15.5.2" type="github">
  <diagram id="kgpKYQtTHZ0yAKxKKP6v" name="Page-1">
    <mxGraphModel dx="352" dy="394" grid="1" gridSize="10" guides="1" tooltips="1" connect="1" arrows="1" fold="1" page="1" pageScale="1" pageWidth="850" pageHeight="1100" math="0" shadow="0">
      <root>
        <mxCell id="0" />
        <mxCell id="1" parent="0" />
        <mxCell id="3nuBFxr9cyL0pnOWT2aG-1" value="카페 사용자:&#xa;사용자" style="shape=umlLifeline;perimeter=lifelinePerimeter;container=1;collapsible=0;recursiveResize=0;rounded=0;shadow=0;strokeWidth=1;" parent="1" vertex="1">
          <mxGeometry x="60" y="80" width="310" height="570" as="geometry" />
        </mxCell>
        <mxCell id="3nuBFxr9cyL0pnOWT2aG-2" value="" style="points=[];perimeter=orthogonalPerimeter;rounded=0;shadow=0;strokeWidth=1;fillColor=#C4C4C4;strokeColor=none;" parent="3nuBFxr9cyL0pnOWT2aG-1" vertex="1">
          <mxGeometry x="45" y="80" width="10" height="70" as="geometry" />
        </mxCell>
        <mxCell id="3nuBFxr9cyL0pnOWT2aG-4" value="" style="points=[];perimeter=orthogonalPerimeter;rounded=0;shadow=0;strokeWidth=1;" parent="3nuBFxr9cyL0pnOWT2aG-1" vertex="1">
          <mxGeometry x="50" y="119" width="10" height="30" as="geometry" />
        </mxCell>
        <mxCell id="-JdzQt7FoMezPjQcP7g4-23" value="" style="points=[];perimeter=orthogonalPerimeter;rounded=0;shadow=0;strokeWidth=1;fillColor=#C4C4C4;strokeColor=none;" vertex="1" parent="3nuBFxr9cyL0pnOWT2aG-1">
          <mxGeometry x="45" y="180" width="10" height="120" as="geometry" />
        </mxCell>
        <mxCell id="-JdzQt7FoMezPjQcP7g4-10" value="" style="points=[];perimeter=orthogonalPerimeter;rounded=0;shadow=0;strokeWidth=1;" vertex="1" parent="3nuBFxr9cyL0pnOWT2aG-1">
          <mxGeometry x="50" y="200.09" width="10" height="99.91" as="geometry" />
        </mxCell>
        <mxCell id="-JdzQt7FoMezPjQcP7g4-29" value="&lt;span style=&quot;text-align: center&quot;&gt;2.1.1: 원하는 자리와 시간을 선택한다.&amp;nbsp;&lt;/span&gt;" style="edgeStyle=orthogonalEdgeStyle;html=1;align=left;spacingLeft=2;endArrow=block;rounded=0;exitX=1.117;exitY=0.401;exitDx=0;exitDy=0;exitPerimeter=0;entryX=1.172;entryY=0.829;entryDx=0;entryDy=0;entryPerimeter=0;" edge="1" target="-JdzQt7FoMezPjQcP7g4-10" parent="3nuBFxr9cyL0pnOWT2aG-1" source="-JdzQt7FoMezPjQcP7g4-10">
          <mxGeometry relative="1" as="geometry">
            <mxPoint x="50" y="240" as="sourcePoint" />
            <Array as="points">
              <mxPoint x="80" y="240" />
              <mxPoint x="80" y="283" />
            </Array>
            <mxPoint x="61" y="304" as="targetPoint" />
          </mxGeometry>
        </mxCell>
        <mxCell id="-JdzQt7FoMezPjQcP7g4-30" value="" style="points=[];perimeter=orthogonalPerimeter;rounded=0;shadow=0;strokeWidth=1;fillColor=#C4C4C4;strokeColor=none;" vertex="1" parent="3nuBFxr9cyL0pnOWT2aG-1">
          <mxGeometry x="45" y="329.12" width="10" height="105.88" as="geometry" />
        </mxCell>
        <mxCell id="-JdzQt7FoMezPjQcP7g4-31" value="" style="points=[];perimeter=orthogonalPerimeter;rounded=0;shadow=0;strokeWidth=1;" vertex="1" parent="3nuBFxr9cyL0pnOWT2aG-1">
          <mxGeometry x="50" y="349.21" width="10" height="80.79" as="geometry" />
        </mxCell>
        <mxCell id="-JdzQt7FoMezPjQcP7g4-33" value="" style="points=[];perimeter=orthogonalPerimeter;rounded=0;shadow=0;strokeWidth=1;" vertex="1" parent="3nuBFxr9cyL0pnOWT2aG-1">
          <mxGeometry x="285" y="329.12" width="10" height="105.88" as="geometry" />
        </mxCell>
        <mxCell id="-JdzQt7FoMezPjQcP7g4-34" value="3.1: 결제 화면을 띄워준다." style="verticalAlign=bottom;endArrow=block;entryX=1.1;entryY=-0.004;shadow=0;strokeWidth=1;entryDx=0;entryDy=0;entryPerimeter=0;" edge="1" parent="3nuBFxr9cyL0pnOWT2aG-1" target="-JdzQt7FoMezPjQcP7g4-31">
          <mxGeometry x="-0.0088" relative="1" as="geometry">
            <mxPoint x="283" y="349.12" as="sourcePoint" />
            <mxPoint x="55" y="349.21" as="targetPoint" />
            <mxPoint as="offset" />
          </mxGeometry>
        </mxCell>
        <mxCell id="-JdzQt7FoMezPjQcP7g4-35" value="3: 확인 버튼을 터치한다." style="verticalAlign=bottom;endArrow=block;shadow=0;strokeWidth=1;exitX=1.061;exitY=-0.001;exitDx=0;exitDy=0;exitPerimeter=0;entryX=-0.128;entryY=0.003;entryDx=0;entryDy=0;entryPerimeter=0;" edge="1" parent="3nuBFxr9cyL0pnOWT2aG-1" source="-JdzQt7FoMezPjQcP7g4-30" target="-JdzQt7FoMezPjQcP7g4-33">
          <mxGeometry relative="1" as="geometry">
            <mxPoint x="115" y="338.21" as="sourcePoint" />
            <mxPoint x="290" y="339.21" as="targetPoint" />
          </mxGeometry>
        </mxCell>
        <mxCell id="-JdzQt7FoMezPjQcP7g4-36" value="" style="points=[];perimeter=orthogonalPerimeter;rounded=0;shadow=0;strokeWidth=1;fillColor=#C4C4C4;strokeColor=none;" vertex="1" parent="3nuBFxr9cyL0pnOWT2aG-1">
          <mxGeometry x="45" y="479.12" width="10" height="79.88" as="geometry" />
        </mxCell>
        <mxCell id="-JdzQt7FoMezPjQcP7g4-37" value="" style="points=[];perimeter=orthogonalPerimeter;rounded=0;shadow=0;strokeWidth=1;" vertex="1" parent="3nuBFxr9cyL0pnOWT2aG-1">
          <mxGeometry x="50" y="499.21" width="10" height="59.79" as="geometry" />
        </mxCell>
        <mxCell id="-JdzQt7FoMezPjQcP7g4-39" value="" style="points=[];perimeter=orthogonalPerimeter;rounded=0;shadow=0;strokeWidth=1;" vertex="1" parent="3nuBFxr9cyL0pnOWT2aG-1">
          <mxGeometry x="285" y="479.12" width="10" height="79.88" as="geometry" />
        </mxCell>
        <mxCell id="-JdzQt7FoMezPjQcP7g4-41" value="4: 결제 버튼을 터치한다." style="verticalAlign=bottom;endArrow=block;shadow=0;strokeWidth=1;exitX=1.061;exitY=-0.001;exitDx=0;exitDy=0;exitPerimeter=0;entryX=-0.128;entryY=0.003;entryDx=0;entryDy=0;entryPerimeter=0;" edge="1" parent="3nuBFxr9cyL0pnOWT2aG-1" source="-JdzQt7FoMezPjQcP7g4-36" target="-JdzQt7FoMezPjQcP7g4-39">
          <mxGeometry relative="1" as="geometry">
            <mxPoint x="115" y="488.21" as="sourcePoint" />
            <mxPoint x="290" y="489.21" as="targetPoint" />
          </mxGeometry>
        </mxCell>
        <mxCell id="-JdzQt7FoMezPjQcP7g4-44" value="4.1.1: 결제 완료 화면을 띄워준다." style="verticalAlign=bottom;endArrow=block;shadow=0;strokeWidth=1;" edge="1" parent="3nuBFxr9cyL0pnOWT2aG-1" source="-JdzQt7FoMezPjQcP7g4-39" target="-JdzQt7FoMezPjQcP7g4-37">
          <mxGeometry x="-0.0088" relative="1" as="geometry">
            <mxPoint x="285.0000000000001" y="558.9999999999999" as="sourcePoint" />
            <mxPoint x="63" y="559.0108399999998" as="targetPoint" />
            <mxPoint as="offset" />
            <Array as="points">
              <mxPoint x="180" y="559" />
            </Array>
          </mxGeometry>
        </mxCell>
        <mxCell id="-JdzQt7FoMezPjQcP7g4-46" value="opt" style="shape=umlFrame;whiteSpace=wrap;html=1;fillColor=#C4C4C4;width=40;height=20;" vertex="1" parent="3nuBFxr9cyL0pnOWT2aG-1">
          <mxGeometry x="35" y="360" width="275" height="60" as="geometry" />
        </mxCell>
        <mxCell id="-JdzQt7FoMezPjQcP7g4-47" value="3.2: 뒤로 가기 버튼을 터치한다." style="verticalAlign=bottom;endArrow=block;shadow=0;strokeWidth=1;" edge="1" parent="3nuBFxr9cyL0pnOWT2aG-1" source="-JdzQt7FoMezPjQcP7g4-31" target="-JdzQt7FoMezPjQcP7g4-33">
          <mxGeometry relative="1" as="geometry">
            <mxPoint x="65.61000000000001" y="339.01412000000005" as="sourcePoint" />
            <mxPoint x="293.72" y="339.43764" as="targetPoint" />
          </mxGeometry>
        </mxCell>
        <mxCell id="-JdzQt7FoMezPjQcP7g4-48" value="2.1: 예약 화면을 띄워준다." style="verticalAlign=bottom;endArrow=block;shadow=0;strokeWidth=1;" edge="1" parent="3nuBFxr9cyL0pnOWT2aG-1" source="-JdzQt7FoMezPjQcP7g4-33" target="-JdzQt7FoMezPjQcP7g4-31">
          <mxGeometry x="-0.0088" relative="1" as="geometry">
            <mxPoint x="293" y="359.12" as="sourcePoint" />
            <mxPoint x="70.99999999999989" y="358.88684" as="targetPoint" />
            <mxPoint as="offset" />
            <Array as="points">
              <mxPoint x="260" y="410" />
              <mxPoint x="190" y="410" />
            </Array>
          </mxGeometry>
        </mxCell>
        <mxCell id="3nuBFxr9cyL0pnOWT2aG-5" value="Book cafe 어플&#xa;:Kotlin, xml" style="shape=umlLifeline;perimeter=lifelinePerimeter;container=1;collapsible=0;recursiveResize=0;rounded=0;shadow=0;strokeWidth=1;" parent="1" vertex="1">
          <mxGeometry x="300" y="80" width="100" height="570" as="geometry" />
        </mxCell>
        <mxCell id="3nuBFxr9cyL0pnOWT2aG-6" value="" style="points=[];perimeter=orthogonalPerimeter;rounded=0;shadow=0;strokeWidth=1;" parent="3nuBFxr9cyL0pnOWT2aG-5" vertex="1">
          <mxGeometry x="45" y="80" width="10" height="70" as="geometry" />
        </mxCell>
        <mxCell id="-JdzQt7FoMezPjQcP7g4-8" value="" style="points=[];perimeter=orthogonalPerimeter;rounded=0;shadow=0;strokeWidth=1;" vertex="1" parent="3nuBFxr9cyL0pnOWT2aG-5">
          <mxGeometry x="45" y="180" width="10" height="120" as="geometry" />
        </mxCell>
        <mxCell id="-JdzQt7FoMezPjQcP7g4-45" value="" style="points=[];perimeter=orthogonalPerimeter;rounded=0;shadow=0;strokeWidth=1;fillColor=#C4C4C4;strokeColor=none;" vertex="1" parent="3nuBFxr9cyL0pnOWT2aG-5">
          <mxGeometry x="45" y="499" width="10" height="60" as="geometry" />
        </mxCell>
        <mxCell id="3nuBFxr9cyL0pnOWT2aG-8" value="1: 어플에 접속한다." style="verticalAlign=bottom;endArrow=block;entryX=0;entryY=0;shadow=0;strokeWidth=1;" parent="1" source="3nuBFxr9cyL0pnOWT2aG-2" target="3nuBFxr9cyL0pnOWT2aG-6" edge="1">
          <mxGeometry relative="1" as="geometry">
            <mxPoint x="275" y="160" as="sourcePoint" />
          </mxGeometry>
        </mxCell>
        <mxCell id="3nuBFxr9cyL0pnOWT2aG-9" value="1.1: 카페 리스트 화면을 띄워준다" style="verticalAlign=bottom;endArrow=block;entryX=1;entryY=0;shadow=0;strokeWidth=1;" parent="1" source="3nuBFxr9cyL0pnOWT2aG-6" target="3nuBFxr9cyL0pnOWT2aG-4" edge="1">
          <mxGeometry relative="1" as="geometry">
            <mxPoint x="240" y="200" as="sourcePoint" />
          </mxGeometry>
        </mxCell>
        <mxCell id="-JdzQt7FoMezPjQcP7g4-1" value="서버&#xa;:node.js" style="shape=umlLifeline;perimeter=lifelinePerimeter;container=1;collapsible=0;recursiveResize=0;rounded=0;shadow=0;strokeWidth=1;" vertex="1" parent="1">
          <mxGeometry x="480" y="80" width="100" height="570" as="geometry" />
        </mxCell>
        <mxCell id="-JdzQt7FoMezPjQcP7g4-2" value="" style="points=[];perimeter=orthogonalPerimeter;rounded=0;shadow=0;strokeWidth=1;" vertex="1" parent="-JdzQt7FoMezPjQcP7g4-1">
          <mxGeometry x="45" y="499" width="10" height="50" as="geometry" />
        </mxCell>
        <mxCell id="-JdzQt7FoMezPjQcP7g4-25" value="2.1: 예약 화면을 띄워준다." style="verticalAlign=bottom;endArrow=block;entryX=1.1;entryY=-0.004;shadow=0;strokeWidth=1;entryDx=0;entryDy=0;entryPerimeter=0;" edge="1" parent="1" target="-JdzQt7FoMezPjQcP7g4-10">
          <mxGeometry x="-0.0088" relative="1" as="geometry">
            <mxPoint x="343" y="280" as="sourcePoint" />
            <mxPoint x="115" y="280.09" as="targetPoint" />
            <mxPoint as="offset" />
          </mxGeometry>
        </mxCell>
        <mxCell id="-JdzQt7FoMezPjQcP7g4-24" value="2: 원하는 카페를 선택한다. " style="verticalAlign=bottom;endArrow=block;shadow=0;strokeWidth=1;exitX=1.061;exitY=-0.001;exitDx=0;exitDy=0;exitPerimeter=0;entryX=-0.128;entryY=0.003;entryDx=0;entryDy=0;entryPerimeter=0;" edge="1" parent="1" source="-JdzQt7FoMezPjQcP7g4-23" target="-JdzQt7FoMezPjQcP7g4-8">
          <mxGeometry relative="1" as="geometry">
            <mxPoint x="175" y="269.09" as="sourcePoint" />
            <mxPoint x="350" y="270.09" as="targetPoint" />
          </mxGeometry>
        </mxCell>
        <mxCell id="-JdzQt7FoMezPjQcP7g4-42" value="4.1: 결제 정보를 전달한다" style="verticalAlign=bottom;endArrow=block;entryX=-0.338;entryY=0.011;shadow=0;strokeWidth=1;entryDx=0;entryDy=0;entryPerimeter=0;" edge="1" parent="1" source="-JdzQt7FoMezPjQcP7g4-39" target="-JdzQt7FoMezPjQcP7g4-2">
          <mxGeometry x="-0.0088" relative="1" as="geometry">
            <mxPoint x="382" y="579.12" as="sourcePoint" />
            <mxPoint x="160" y="578.81036" as="targetPoint" />
            <mxPoint as="offset" />
          </mxGeometry>
        </mxCell>
        <mxCell id="-JdzQt7FoMezPjQcP7g4-43" value="4.1.1: 결제 완료를 알린다." style="verticalAlign=bottom;endArrow=block;shadow=0;strokeWidth=1;exitX=-0.129;exitY=1;exitDx=0;exitDy=0;exitPerimeter=0;dashed=1;" edge="1" parent="1" source="-JdzQt7FoMezPjQcP7g4-2" target="-JdzQt7FoMezPjQcP7g4-39">
          <mxGeometry x="-0.0088" relative="1" as="geometry">
            <mxPoint x="366.78999999999996" y="589.28" as="sourcePoint" />
            <mxPoint x="531.62" y="589.5500000000001" as="targetPoint" />
            <mxPoint as="offset" />
          </mxGeometry>
        </mxCell>
      </root>
    </mxGraphModel>
  </diagram>
</mxfile>
